{
 "asset": {
  "version": "2.0",
  "generator": "EGSS make_figure.py"
 },
 "scene": 0,
 "scenes": [
  {
   "name": "figure",
   "nodes": [
    19
   ]
  }
 ],
 "nodes": [
  {
   "name": "head",
   "mesh": 1,
   "translation": [
    0,
    0.975,
    0
   ],
   "scale": [
    0.55,
    0.55,
    0.55
   ]
  },
  {
   "name": "upperArm.L",
   "mesh": 1,
   "translation": [
    0,
    -0.35,
    0
   ],
   "scale": [
    0.22,
    0.7,
    0.22
   ]
  },
  {
   "name": "lowerArm.L",
   "mesh": 1,
   "translation": [
    0,
    -0.35,
    0
   ],
   "scale": [
    0.18,
    0.65,
    0.18
   ]
  },
  {
   "name": "elbow.L",
   "translation": [
    0,
    -0.7,
    0
   ],
   "rotation": [
    -0.27563735581699916,
    0.0,
    0.0,
    0.9612616959383189
   ],
   "children": [
    2
   ]
  },
  {
   "name": "shoulder.L",
   "translation": [
    0.62,
    0.62,
    0
   ],
   "rotation": [
    0.0,
    0.0,
    0.10452846326765347,
    0.9945218953682733
   ],
   "children": [
    1,
    3
   ]
  },
  {
   "name": "upperArm.R",
   "mesh": 1,
   "translation": [
    0,
    -0.35,
    0
   ],
   "scale": [
    0.22,
    0.7,
    0.22
   ]
  },
  {
   "name": "lowerArm.R",
   "mesh": 1,
   "translation": [
    0,
    -0.35,
    0
   ],
   "scale": [
    0.18,
    0.65,
    0.18
   ]
  },
  {
   "name": "elbow.R",
   "translation": [
    0,
    -0.7,
    0
   ],
   "rotation": [
    -0.12186934340514748,
    0.0,
    0.0,
    0.992546151641322
   ],
   "children": [
    6
   ]
  },
  {
   "name": "shoulder.R",
   "translation": [
    -0.62,
    0.62,
    0
   ],
   "rotation": [
    0.0,
    0.0,
    -0.10452846326765347,
    0.9945218953682733
   ],
   "children": [
    5,
    7
   ]
  },
  {
   "name": "thigh.L",
   "mesh": 2,
   "translation": [
    0,
    -0.42,
    0
   ],
   "scale": [
    0.28,
    0.85,
    0.28
   ]
  },
  {
   "name": "shin.L",
   "mesh": 4,
   "translation": [
    0,
    -0.4,
    0
   ],
   "scale": [
    0.24,
    0.8,
    0.24
   ]
  },
  {
   "name": "knee.L",
   "translation": [
    0,
    -0.84,
    0
   ],
   "rotation": [
    0.08715574274765817,
    0.0,
    0.0,
    0.9961946980917455
   ],
   "children": [
    10
   ]
  },
  {
   "name": "hip.L",
   "translation": [
    0.3,
    -0.75,
    0
   ],
   "children": [
    9,
    11
   ]
  },
  {
   "name": "thigh.R",
   "mesh": 2,
   "translation": [
    0,
    -0.42,
    0
   ],
   "scale": [
    0.28,
    0.85,
    0.28
   ]
  },
  {
   "name": "shin.R",
   "mesh": 4,
   "translation": [
    0,
    -0.4,
    0
   ],
   "scale": [
    0.24,
    0.8,
    0.24
   ]
  },
  {
   "name": "knee.R",
   "translation": [
    0,
    -0.84,
    0
   ],
   "rotation": [
    -0.08715574274765817,
    0.0,
    0.0,
    0.9961946980917455
   ],
   "children": [
    14
   ]
  },
  {
   "name": "hip.R",
   "translation": [
    -0.3,
    -0.75,
    0
   ],
   "children": [
    13,
    15
   ]
  },
  {
   "name": "buckle",
   "mesh": 3,
   "translation": [
    0,
    -0.45,
    0.31
   ],
   "scale": [
    0.3,
    0.18,
    0.06
   ]
  },
  {
   "name": "torso",
   "mesh": 0,
   "scale": [
    1.0,
    1.4,
    0.55
   ]
  },
  {
   "name": "figure",
   "translation": [
    0,
    0,
    0
   ],
   "children": [
    18,
    0,
    17,
    4,
    8,
    12,
    16
   ]
  }
 ],
 "meshes": [
  {
   "name": "checkerCube",
   "primitives": [
    {
     "attributes": {
      "POSITION": 0,
      "NORMAL": 1,
      "TEXCOORD_0": 2
     },
     "indices": 3,
     "material": 0
    }
   ]
  },
  {
   "name": "skinCube",
   "primitives": [
    {
     "attributes": {
      "POSITION": 0,
      "NORMAL": 1,
      "TEXCOORD_0": 2
     },
     "indices": 3,
     "material": 1
    }
   ]
  },
  {
   "name": "clothCube",
   "primitives": [
    {
     "attributes": {
      "POSITION": 0,
      "NORMAL": 1,
      "TEXCOORD_0": 2
     },
     "indices": 3,
     "material": 2
    }
   ]
  },
  {
   "name": "metalCube",
   "primitives": [
    {
     "attributes": {
      "POSITION": 0,
      "NORMAL": 1,
      "TEXCOORD_0": 2
     },
     "indices": 3,
     "material": 3
    }
   ]
  },
  {
   "name": "bootCube",
   "primitives": [
    {
     "attributes": {
      "POSITION": 0,
      "NORMAL": 1,
      "TEXCOORD_0": 2
     },
     "indices": 3,
     "material": 4
    }
   ]
  }
 ],
 "materials": [
  {
   "name": "checker",
   "pbrMetallicRoughness": {
    "baseColorFactor": [
     1.0,
     1.0,
     1.0,
     1.0
    ],
    "metallicFactor": 0.0,
    "roughnessFactor": 0.8,
    "baseColorTexture": {
     "index": 0
    }
   }
  },
  {
   "name": "skin",
   "pbrMetallicRoughness": {
    "baseColorFactor": [
     0.9,
     0.72,
     0.6,
     1.0
    ],
    "metallicFactor": 0.0,
    "roughnessFactor": 0.7
   }
  },
  {
   "name": "cloth",
   "pbrMetallicRoughness": {
    "baseColorFactor": [
     0.25,
     0.35,
     0.65,
     1.0
    ],
    "metallicFactor": 0.0,
    "roughnessFactor": 0.9
   }
  },
  {
   "name": "metal",
   "pbrMetallicRoughness": {
    "baseColorFactor": [
     0.75,
     0.75,
     0.8,
     1.0
    ],
    "metallicFactor": 1.0,
    "roughnessFactor": 0.25
   }
  },
  {
   "name": "boot",
   "pbrMetallicRoughness": {
    "baseColorFactor": [
     0.2,
     0.18,
     0.17,
     1.0
    ],
    "metallicFactor": 0.0,
    "roughnessFactor": 0.85
   }
  }
 ],
 "textures": [
  {
   "source": 0,
   "sampler": 0
  }
 ],
 "samplers": [
  {
   "magFilter": 9728,
   "minFilter": 9987,
   "wrapS": 10497,
   "wrapT": 10497
  }
 ],
 "images": [
  {
   "uri": "checker.png"
  }
 ],
 "accessors": [
  {
   "bufferView": 0,
   "byteOffset": 0,
   "componentType": 5126,
   "count": 24,
   "type": "VEC3",
   "min": [
    -0.5,
    -0.5,
    -0.5
   ],
   "max": [
    0.5,
    0.5,
    0.5
   ]
  },
  {
   "bufferView": 0,
   "byteOffset": 12,
   "componentType": 5126,
   "count": 24,
   "type": "VEC3"
  },
  {
   "bufferView": 0,
   "byteOffset": 24,
   "componentType": 5126,
   "count": 24,
   "type": "VEC2"
  },
  {
   "bufferView": 1,
   "byteOffset": 0,
   "componentType": 5123,
   "count": 36,
   "type": "SCALAR"
  }
 ],
 "bufferViews": [
  {
   "buffer": 0,
   "byteOffset": 0,
   "byteLength": 768,
   "byteStride": 32,
   "target": 34962
  },
  {
   "buffer": 0,
   "byteOffset": 768,
   "byteLength": 72,
   "target": 34963
  }
 ],
 "buffers": [
  {
   "byteLength": 840,
   "uri": "figure.bin"
  }
 ]
}